<svg xmlns="http://www.w3.org/2000/svg" version="1.1" xmlns:xlink="http://www.w3.org/1999/xlink" xmlns:svgjs="http://svgjs.dev/svgjs" width="200" height="200"><svg t="1732673174140" class="icon" viewBox="0 0 1024 1024" version="1.1" xmlns="http://www.w3.org/2000/svg" p-id="1492" xmlns:xlink="http://www.w3.org/1999/xlink" width="200" height="200"><path d="M1014.803735 851.749053c-12.054887-23.306116-13.126433-38.57564-1.875205-45.808572 0.535773-20.627252-4.018296-43.129708-16.073183-69.114688-1.071546-20.091479-12.322774-44.737027-35.361003-58.399232l-18.216274-27.324412c-2.410977-4.018296-2.410977-43.397595 14.733751-63.489073l27.324411-30.539048c2.410977-3.214637 7.232932-75.543961 4.821955-82.776894-1.607318-7.232932-4.286182-12.858547-7.232932-16.876842l-4.821955-7.232933v-42.861822c0-66.70371-20.091479-116.530578-61.881755-151.087922l-16.876843-8.304478c-1.339432-12.59066-6.965046-30.271162-21.430911-35.361003l-11.519114-19.28782C828.622696 121.758649 711.020572 15.67564 569.040787 1.477661c-47.148004-3.750409-122.156192-1.339432-216.987973 18.752047-100.993168 21.698797-205.468859 86.259417-269.761592 147.337513-79.562257 76.34762-136.622057 291.192503 1.607319 493.714611l22.502456 33.753685 12.858547 39.379299c0.535773 3.482523 42.326049 61.078096 47.951663 66.70371 44.201254 45.004913 110.101305 49.826868 196.896494 13.662206 30.539048-12.858547 55.184596-10.447569 73.936643 6.429273 12.054887 68.311029 40.986617 111.708623 86.795189 130.192784 17.680502 6.429273 79.026484 26.252866 196.360722 51.702073 59.738664 13.126433 162.607037 30.539048 187.520471 13.930092l35.628889-16.073183c47.951663 0 100.993168-87.598849 70.45412-149.212718z m-62.417528-163.946469c20.091479 6.965046 25.717093 10.983342 39.379299 46.880118-6.69716 0.535773-8.840251 3.214637-8.304478 7.232933h-7.768705c4.554069-27.056525-19.555706-34.557344-30.003276-39.915072l-2.143091-13.930092 8.840251-0.267887z m-137.693603-366.468577c4.821955-10.179683 4.821955-21.698797 4.821955-32.950025 0-1.875205-0.535773-3.214637-0.535773-4.821955-0.535773 0.535773 10.983342-5.625614 10.983342-8.036592 28.395957-5.625614 73.668756 2.678864 100.457395 40.182958 26.788639 37.771981 55.988255 192.074539-46.076458 162.874923-5.625614-3.750409-11.787001-6.69716-17.412616-10.447569a5.30415 5.30415 0 0 0-4.821955-0.803659c-38.307753-29.735389-83.04478-68.846801-47.41589-145.998081z m49.558982 443.619857c-9.64391-15.001638-13.662206-27.324411-12.054888-36.968321 0.535773-3.750409 6.161387-4.821955 9.376024-4.821955 4.821955 0 34.021571 32.146366 30.806934 56.524027l-25.18132 6.161387c1.875205-8.036592 0.803659-15.001638-2.94675-20.895138z m22.502456-27.860184c-1.339432-7.500819-5.625614-26.252866 11.251228-26.252866 3.214637 0 10.983342 7.232932 23.03823 19.019933 10.447569 10.715455 16.073183 23.306116 16.608956 38.57564l-39.111413 7.232932c-2.143091-8.036592 2.143091-21.430911-11.787001-38.575639z m-70.45412-215.916428c15.53741-23.038229 18.216274-55.720368 17.680502-58.399232 35.896776 30.271162 54.11305 49.023209 59.202891 71.525665 5.357728 22.502456 2.410977 38.039867 2.678864 51.702072-2.94675 17.144729-1.071546 37.504094-17.144729 42.861822-16.34107 7.768705-21.163025-19.28782-24.109774-28.931729h-4.821955c-6.429273 47.41589-20.895138 60.006551-45.004913 38.575639-25.717093-24.913434-23.841888-64.828506 11.519114-117.334237z m-31.074821 238.954657c0-6.965046 2.410977-10.179683 5.357728-10.179683h8.304478c4.018296 0 7.768705 5.625614 11.787001 17.680502l3.214637 10.447569 6.429273 8.840251v2.94675l-21.430911 4.821955c-8.840251 2.410977-13.662206 1.607318-13.662206-2.410978v-32.146366z m-185.913152-209.219268c-17.948388-0.535773-35.093117-17.144729-35.093117-17.144729-20.895138-19.555706-25.98498-65.364278-28.12807-85.455757 0.267886-4.554069 0.535773-9.108137 0.535772-13.662206 6.429273-12.858547 13.394319-24.377661 20.091479-34.289458 19.019933-26.252866 79.562257-81.705348 157.517196-89.741939 1.339432-0.267886 7.232932 7.768705 9.911796 11.251228-0.267886 0.267886-0.267886 0.267886-0.267886 0.535773 32.414253 34.557344 33.485798 78.758598 27.592298 121.352533-6.69716 82.776894-41.790276 106.886668-99.921623 106.886668h-52.237845z m88.670394 294.675025c-0.535773 3.214637-12.59066 3.214637-17.412615 0.267887-6.965046-5.625614-18.484161-36.164662-10.447569-36.164662l28.93173-0.267887-1.071546 36.164662z m-1.339432-39.915071h-19.555706c-7.232932 0-9.64391-7.232932-7.232933-22.502457 0.803659-6.965046 7.232932-20.091479 18.484161-38.57564 1.071546-1.875205 6.965046 7.768705 9.64391 12.054888 10.715455 16.876842 1.071546 49.023209-1.339432 49.023209z m30.539048 33.485798c-5.625614 6.69716-13.126433 7.768705-23.574002 6.69716l-0.535773-33.485799c2.410977-5.893501 12.858547-5.625614 23.841889-2.94675v29.735389z m-14.465865-38.57564c-3.214637 0-4.821955-15.269524 2.143091-37.504094l5.625615-10.983342c9.376024-2.94675 16.876842 2.410977 23.038229 17.948388 6.429273 16.073183 8.840251 26.520752 8.840251 30.271162l-39.647186 0.267886z m39.647186 40.182958c-7.768705 4.018296-11.787001 4.018296-19.28782-0.267886l-1.607319-29.467503c2.678864-4.554069 14.197979-4.554069 23.574002-4.018295l-2.678863 33.753684z m11.519114-5.357727l-2.678864-27.056525 22.770343-2.410978 0.267887 26.788639c3.482523 16.876842-21.698797 17.948388-20.359366 2.678864z m-7.768705-37.504095l8.304478-41.790276c0.803659-2.94675 10.447569-3.750409 11.787001-0.535773l13.394319 38.039867c-5.625614 6.69716-19.019933 11.787001-33.485798 4.286182z m42.861822 45.540686c-10.715455 0-9.911796-20.895138-9.911796-34.021571 9.911796-6.161387 14.197979-10.447569 24.109774-8.036591l1.071546 41.522389c0 1.071546-10.179683 0.535773-15.269524 0.535773z m24.109775-6.697159c-3.482523-12.59066-4.554069-37.771981-0.267887-38.039867l25.449207-1.071546 0.803659 31.87848c0 12.59066-20.091479 23.574002-25.984979 7.232933z m23.038229-46.880118c-20.091479-3.482523-28.128071-44.201254-26.520752-56.524028l12.858546 2.410978c25.98498 5.893501 65.900051 62.149642 13.662206 54.11305z m45.808572 24.109775c0 28.93173-7.768705 42.593936-23.306116 40.182958-8.036592-1.071546-12.054887-8.036592-12.054887-21.698798l-1.071546-30.271161c6.965046-12.322774 20.627252-8.304478 36.164663-12.322774v24.109775z m6.69716 29.199616l1.607318-8.036592c4.018296-19.28782 4.018296-35.361003-0.803659-48.219549 6.429273 1.607318 8.840251 0 8.304478-4.821955h7.768705c8.304478 0 13.662206 49.023209-16.876842 61.078096z m45.272799-11.251228c-9.64391 2.94675-20.627252-1.607318-20.091479-4.821955l3.75041-39.915072c2.678864-5.625614 16.876842-15.269524 23.306115-12.054887 0.803659 10.983342 0.267886 56.791914-6.965046 56.791914z m33.753685-23.306116c0 4.018296-4.821955 7.232932-15.537411 10.179683-2.410977 0.803659-5.625614 0.803659-8.84025 0l2.410977-45.004913 6.429273-4.821955c4.821955-2.94675 10.447569-4.821955 15.537411-2.946751v42.593936z m-17.680502-46.880118c-2.410977-3.214637-5.357728-4.821955-9.64391-4.018296 0-8.036592-4.018296-17.680502-11.787001-28.12807-26.520752-38.039867 16.608956-21.966684 20.091479-20.091479 20.895138 11.787001 41.52239 45.004913 1.339432 52.237845z m24.109775 47.415891l-0.535773-45.808572 15.001638-7.768706 6.69716 33.753685c-1.339432 8.840251-14.465865 20.359365-21.163025 19.823593z" p-id="1493" fill="#d81e06"></path></svg><style>@media (prefers-color-scheme: light) { :root { filter: none; } }
@media (prefers-color-scheme: dark) { :root { filter: none; } }
</style></svg>