<?xml version="1.0" standalone="no"?><!DOCTYPE svg PUBLIC "-//W3C//DTD SVG 1.1//EN" "http://www.w3.org/Graphics/SVG/1.1/DTD/svg11.dtd"><svg t="1732689406738" class="icon" viewBox="0 0 1024 1024" version="1.1" xmlns="http://www.w3.org/2000/svg" p-id="5194" width="256" height="256" xmlns:xlink="http://www.w3.org/1999/xlink"><path d="M841.736 718.572c-21.005-16.988-47.436-28.561-73.639-32.673 16.589-21.447 24.98-46.403 24.98-74.422 0-76.257-29.004-139.558-83.876-183.059-25.225-19.998-55.376-35.368-89.612-45.681-10.711-3.226-21.755-5.929-33.09-8.12C633.293 348.416 665 298.348 665 241.005c0-84.358-68.637-152.988-153-152.988-84.364 0-153 68.63-153 152.988 0 57.343 31.707 107.411 78.501 133.613-11.337 2.191-22.383 4.894-33.096 8.121-34.237 10.313-64.388 25.682-89.612 45.681-54.87 43.5-83.872 106.8-83.872 183.059 0 30.109 6.053 53.928 17.99 70.792a67.756 67.756 0 0 0 3.285 4.236c-25.094 4.574-50.104 15.859-70.11 32.077C151.077 743.721 134 778.398 134 816.228c0 75.937 50.648 117.756 142.618 117.756h2.067l2.014-0.47c1.205-0.28 121.74-28.052 231.3-28.052 118.326 0 229.867 27.697 230.977 27.977l2.164 0.545h2.23c37.58 0 68.354-6.833 91.462-20.309C872.307 894.156 890 860.458 890 816.228c0-37.803-17.141-72.485-48.264-97.656zM395 241.005c0-64.507 52.485-116.988 117-116.988 64.514 0 117 52.481 117 116.988 0 64.526-52.486 117.022-117 117.022-64.514 0-117-52.496-117-117.022z m425.698 641.571c-17.127 9.986-41.066 15.165-71.179 15.399-17.059-4.135-122.554-28.514-237.52-28.514-106.955 0-220.167 24.623-237.382 28.514C169.998 897.21 170 836.321 170 816.228c0-61.81 63.042-95.994 106.618-95.994 7.702 0 14.255-4.847 16.825-11.649 1.89 0.195 3.797 0.336 5.737 0.368 29.47 0.499 62.634-17.84 88.745-49.042 27.645-33.034 43.677-75.318 45.142-119.064 0.333-9.936-7.451-18.26-17.387-18.593-9.952-0.34-18.259 7.451-18.592 17.388-1.199 35.756-14.258 70.264-36.771 97.165-18.918 22.608-42.076 36.477-60.534 36.151-28.592-0.479-32.861-38.724-32.861-61.479 0-153.172 126.6-207.747 245.078-207.747 118.478 0 245.077 54.575 245.077 207.747 0 24.682-8.747 45.214-26.741 62.771-66.635 65.015-230.092 61.766-231.723 61.727-9.95-0.212-18.197 7.6-18.451 17.537-0.253 9.938 7.6 18.199 17.537 18.451 0.75 0.02 3.236 0.073 7.18 0.073 31.59 0 156.657-3.464 231.06-55.9a17.921 17.921 0 0 0 11.432 4.098c43.581 0 106.63 34.184 106.63 95.993-0.001 31.577-10.895 53.28-33.303 66.347z" fill="#d81e06" p-id="5195"></path></svg>